grf
version=1
nRows=7
nColumns=37
inDegrees=no
endheader
time	ground_force_1_vx	ground_force_1_vy	ground_force_1_vz	ground_force_1_px	ground_force_1_py	ground_force_1_pz	ground_moment_1_mx	ground_moment_1_my	ground_moment_1_mz	ground_force_2_vx	ground_force_2_vy	ground_force_2_vz	ground_force_2_px	ground_force_2_py	ground_force_2_pz	ground_moment_2_mx	ground_moment_2_my	ground_moment_2_mz	ground_force_3_vx	ground_force_3_vy	ground_force_3_vz	ground_force_3_px	ground_force_3_py	ground_force_3_pz	ground_moment_3_mx	ground_moment_3_my	ground_moment_3_mz	ground_force_4_vx	ground_force_4_vy	ground_force_4_vz	ground_force_4_px	ground_force_4_py	ground_force_4_pz	ground_moment_4_mx	ground_moment_4_my	ground_moment_4_mz
      0.00000000	      0.00000000	     -0.00000000	      0.00000000	      0.00000000	      0.00000000	      0.00000000	      0.00000000	      0.00000000	      0.00000000	    -13.60869312	     26.44545746	   -340.97906494	   -306.13008590	  -1013.55763746	      0.00000000	      0.00000000	      0.00000000	   2120.44383610	     12.56259338	    -33.63061252	   -442.53286743	   -346.41098867	   -732.83620885	      0.00000000	      0.00000000	     -0.00000000	   -652.50676951	      0.00000000	     -0.00000000	      0.00000000	      0.00000000	      0.00000000	      0.00000000	      0.00000000	      0.00000000	      0.00000000
      0.01000000	      0.00000000	     -0.00000000	      0.00000000	      0.00000000	      0.00000000	      0.00000000	      0.00000000	      0.00000000	      0.00000000	    -12.98391819	     26.38900948	   -341.96359253	   -306.04562471	  -1014.27818494	      0.00000000	      0.00000000	      0.00000000	   2450.15109114	     12.43969719	    -33.64447130	   -442.18487549	   -346.17854966	   -732.42877473	      0.00000000	      0.00000000	     -0.00000000	   -699.31481893	      0.00000000	     -0.00000000	      0.00000000	      0.00000000	      0.00000000	      0.00000000	      0.00000000	      0.00000000	      0.00000000
      0.02000000	      0.00000000	     -0.00000000	      0.00000000	      0.00000000	      0.00000000	      0.00000000	      0.00000000	      0.00000000	      0.00000000	    -13.64920807	     26.38933372	   -342.91104126	   -306.73368285	  -1014.66329329	      0.00000000	     -0.00000000	      0.00000000	   2170.93548638	     11.92143718	    -33.65056714	   -440.22558594	   -346.69372537	   -733.05984405	      0.00000000	      0.00000000	     -0.00000000	   -603.43506099	      0.00000000	     -0.00000000	      0.00000000	      0.00000000	      0.00000000	      0.00000000	      0.00000000	      0.00000000	      0.00000000
      0.03000000	      0.00000000	     -0.00000000	      0.00000000	      0.00000000	      0.00000000	      0.00000000	      0.00000000	      0.00000000	      0.00000000	    -13.01112270	     26.39619827	   -344.13296509	   -306.72964894	  -1014.68014186	      0.00000000	      0.00000000	      0.00000000	   2342.90470966	     11.79853147	    -33.47392376	   -439.31323242	   -346.27712074	   -733.17328612	      0.00000000	      0.00000000	     -0.00000000	   -570.68093378	      0.00000000	     -0.00000000	      0.00000000	      0.00000000	      0.00000000	      0.00000000	      0.00000000	      0.00000000	      0.00000000
      0.04000000	      0.00000000	     -0.00000000	      0.00000000	      0.00000000	      0.00000000	      0.00000000	      0.00000000	      0.00000000	      0.00000000	    -13.05893326	     26.73912048	   -346.08694458	   -307.19363821	  -1015.99397694	      0.00000000	      0.00000000	      0.00000000	   2322.99803596	     12.21515459	    -33.40610611	   -438.42532349	   -346.40066748	   -733.11174320	      0.00000000	      0.00000000	     -0.00000000	   -643.00048260	      0.00000000	     -0.00000000	      0.00000000	      0.00000000	      0.00000000	      0.00000000	      0.00000000	      0.00000000	      0.00000000
      0.05000000	      0.00000000	     -0.00000000	      0.00000000	      0.00000000	      0.00000000	      0.00000000	      0.00000000	      0.00000000	      0.00000000	    -12.88276577	     26.95148468	   -347.17590332	   -307.81326236	  -1014.42527896	      0.00000000	      0.00000000	      0.00000000	   2294.99980743	     11.78526110	    -33.31049068	   -439.06961060	   -346.21196760	   -732.76584363	      0.00000000	      0.00000000	     -0.00000000	   -586.41075902	      0.00000000	     -0.00000000	      0.00000000	      0.00000000	      0.00000000	      0.00000000	      0.00000000	      0.00000000	      0.00000000
      0.06000000	      0.00000000	     -0.00000000	      0.00000000	      0.00000000	      0.00000000	      0.00000000	      0.00000000	      0.00000000	      0.00000000	    -12.91444969	     27.33706856	   -349.29498291	   -308.28610785	  -1014.54465477	      0.00000000	      0.00000000	      0.00000000	   2144.89105781	     11.69674488	    -33.15441615	   -438.48297119	   -346.69444692	   -732.76482522	      0.00000000	      0.00000000	     -0.00000000	   -552.60006912	      0.00000000	     -0.00000000	      0.00000000	      0.00000000	      0.00000000	      0.00000000	      0.00000000	      0.00000000	      0.00000000
